# xmcd
#
# Track frame offsets:
#	150
#	21643
#	37608
#	55920
#	73175
#	90895
#	113036
#
# Disc length: 1724 seconds
#
# Revision: 0
# Processed by: cddbd v1.5.1PL0 Copyright (c) Steve Scherf et al.
# Submitted via: dBpowerAMP V4.0
#
DISCID=5106ba07
DTITLE=Cathy Grier - What Fools Do
DYEAR=2002
DGENRE=Blues
TTITLE0=Comin' Back to Me
TTITLE1=What Fools Do
TTITLE2=Ellan (The Spectacle)
TTITLE3=Stealing Hearts
TTITLE4=Tenderness
TTITLE5=At Your feet
TTITLE6=Get me Away
EXTD=
EXTT0=
EXTT1=
EXTT2=
EXTT3=
EXTT4=
EXTT5=
EXTT6=
PLAYORDER=
